<svg width="20" height="23" viewBox="0 0 20 23" fill="none" xmlns="http://www.w3.org/2000/svg">
<path d="M7.49584 18.4281C7.70359 18.4832 7.79689 18.721 7.67292 18.8966L4.99745 22.6875C4.77994 23.0025 4.29994 22.98 4.11244 22.635L3.19745 20.9325C3.02495 20.61 2.71745 20.3925 2.35745 20.3325L0.444946 20.0475C0.0624457 19.9875 -0.125054 19.545 0.0999456 19.23L2.51765 15.7998C2.62887 15.6419 2.852 15.6295 2.9858 15.7687C4.19884 17.0303 5.75112 17.9657 7.49584 18.4281Z" fill="#008DF2"/>
<path d="M19.5399 19.905L17.6349 20.2575C17.2824 20.325 16.9749 20.55 16.8174 20.88L15.9543 22.6136C15.7829 22.958 15.3093 23.0019 15.0774 22.695L12.2317 18.928C12.0987 18.7518 12.1924 18.5049 12.4064 18.4504C14.1633 18.0032 15.7326 17.0783 16.9625 15.822C17.0938 15.6879 17.3094 15.6975 17.4225 15.8473L19.8624 19.08C20.0949 19.3875 19.9224 19.83 19.5399 19.905Z" fill="#008DF2"/>
<path d="M10 0.75C5.44 0.75 1.75 4.44 1.75 9C1.75 13.56 5.44 17.25 10 17.25C14.56 17.25 18.25 13.56 18.25 9C18.25 4.44 14.56 0.75 10 0.75ZM13.54 9.0975L12.6775 9.945C12.4825 10.1325 12.3925 10.4025 12.4375 10.6725L12.64 11.8575C12.76 12.5325 12.055 13.0425 11.455 12.7275L10.3825 12.165C10.1425 12.0375 9.8575 12.0375 9.6175 12.165L8.545 12.7275C7.945 13.0425 7.24 12.5326 7.36 11.8575L7.5625 10.6725C7.6075 10.4025 7.5175 10.1325 7.3225 9.945L6.46 9.0975C5.9725 8.625 6.2425 7.8 6.9175 7.695L8.11 7.5225C8.38 7.485 8.6125 7.32 8.7325 7.0725L9.265 5.9925C9.565 5.385 10.435 5.385 10.735 5.9925L11.2675 7.0725C11.3875 7.32 11.62 7.485 11.89 7.5225L13.0825 7.695C13.7575 7.8 14.0275 8.625 13.54 9.0975Z" fill="#008DF2"/>
</svg>
