<svg width="20" height="22" viewBox="0 0 20 22" fill="none" xmlns="http://www.w3.org/2000/svg">
<path d="M9.9999 22C11.2099 22 12.1999 21.01 12.1999 19.8H7.7999C7.7999 21.01 8.7899 22 9.9999 22ZM17.1499 15.4V9.35C17.1499 5.94 14.8399 3.19 11.6499 2.42V1.65C11.6499 0.77 10.8799 0 9.9999 0C9.1199 0 8.3499 0.77 8.3499 1.65V2.42C5.1599 3.19 2.8499 5.94 2.8499 9.35V15.4L0.649902 17.6V18.7H19.3499V17.6L17.1499 15.4ZM14.9499 16.5H5.0499V9.35C5.0499 6.6 7.2499 4.4 9.9999 4.4C12.7499 4.4 14.9499 6.6 14.9499 9.35V16.5Z" fill="#373042"/>
</svg>
