<svg width="20" height="20" viewBox="0 0 20 20" fill="none" xmlns="http://www.w3.org/2000/svg">
<path d="M3.58329 19.8542H16.4166C17.3279 19.853 18.2016 19.4905 18.846 18.8461C19.4904 18.2017 19.8529 17.3281 19.8541 16.4167V5.41675C19.8529 4.50544 19.4904 3.6318 18.846 2.98741C18.2016 2.34301 17.3279 1.98046 16.4166 1.97925H3.58329C2.67198 1.98046 1.79835 2.34301 1.15395 2.98741C0.50956 3.6318 0.147005 4.50544 0.145792 5.41675V16.4167C0.147005 17.3281 0.50956 18.2017 1.15395 18.8461C1.79835 19.4905 2.67198 19.853 3.58329 19.8542ZM16.4166 3.35425C16.9634 3.35498 17.4876 3.57251 17.8742 3.95914C18.2609 4.34578 18.4784 4.86996 18.4791 5.41675V16.4167C18.4784 16.9635 18.2609 17.4877 17.8742 17.8744C17.4876 18.261 16.9634 18.4785 16.4166 18.4792H3.58329C3.03651 18.4785 2.51233 18.261 2.12569 17.8744C1.73905 17.4877 1.52152 16.9635 1.52079 16.4167V5.41675C1.52152 4.86996 1.73905 4.34578 2.12569 3.95914C2.51233 3.57251 3.03651 3.35498 3.58329 3.35425H16.4166Z" fill="#AAAAAA"/>
<path d="M0.833292 7.93758H19.1666C19.349 7.93758 19.5238 7.86515 19.6528 7.73622C19.7817 7.60729 19.8541 7.43242 19.8541 7.25008V5.41675C19.8529 4.50544 19.4904 3.6318 18.846 2.98741C18.2016 2.34301 17.3279 1.98046 16.4166 1.97925H3.58329C2.67198 1.98046 1.79835 2.34301 1.15395 2.98741C0.50956 3.6318 0.147005 4.50544 0.145792 5.41675V7.25008C0.145792 7.43242 0.218224 7.60729 0.347157 7.73622C0.476088 7.86515 0.650955 7.93758 0.833292 7.93758ZM18.4791 6.56258H1.52079V5.41675C1.52152 4.86996 1.73905 4.34578 2.12569 3.95914C2.51233 3.57251 3.03651 3.35498 3.58329 3.35425H16.4166C16.9634 3.35498 17.4876 3.57251 17.8742 3.95914C18.2609 4.34578 18.4784 4.86996 18.4791 5.41675V6.56258Z" fill="#AAAAAA"/>
<path d="M6.33325 5.18754C6.51559 5.18754 6.69046 5.11511 6.81939 4.98618C6.94832 4.85725 7.02075 4.68238 7.02075 4.50004V0.833374C7.02075 0.651038 6.94832 0.476169 6.81939 0.347238C6.69046 0.218307 6.51559 0.145874 6.33325 0.145874C6.15092 0.145874 5.97605 0.218307 5.84712 0.347238C5.71818 0.476169 5.64575 0.651038 5.64575 0.833374V4.50004C5.64575 4.68238 5.71818 4.85725 5.84712 4.98618C5.97605 5.11511 6.15092 5.18754 6.33325 5.18754Z" fill="#AAAAAA"/>
<path d="M13.6666 5.18754C13.849 5.18754 14.0238 5.11511 14.1528 4.98618C14.2817 4.85725 14.3541 4.68238 14.3541 4.50004V0.833374C14.3541 0.651038 14.2817 0.476169 14.1528 0.347238C14.0238 0.218307 13.849 0.145874 13.6666 0.145874C13.4843 0.145874 13.3094 0.218307 13.1805 0.347238C13.0516 0.476169 12.9791 0.651038 12.9791 0.833374V4.50004C12.9791 4.68238 13.0516 4.85725 13.1805 4.98618C13.3094 5.11511 13.4843 5.18754 13.6666 5.18754Z" fill="#AAAAAA"/>
<path d="M15.5 11.8333C14.9937 11.8333 14.5833 11.4229 14.5833 10.9167C14.5833 10.4104 14.9937 10 15.5 10C16.0062 10 16.4166 10.4104 16.4166 10.9167C16.4166 11.4229 16.0062 11.8333 15.5 11.8333Z" fill="#AAAAAA"/>
<path d="M11.8333 11.8333C11.3271 11.8333 10.9167 11.4229 10.9167 10.9167C10.9167 10.4104 11.3271 10 11.8333 10C12.3396 10 12.75 10.4104 12.75 10.9167C12.75 11.4229 12.3396 11.8333 11.8333 11.8333Z" fill="#AAAAAA"/>
<path d="M8.16659 11.8333C7.66032 11.8333 7.24992 11.4229 7.24992 10.9167C7.24992 10.4104 7.66032 10 8.16659 10C8.67285 10 9.08325 10.4104 9.08325 10.9167C9.08325 11.4229 8.67285 11.8333 8.16659 11.8333Z" fill="#AAAAAA"/>
<path d="M4.49996 11.8333C3.9937 11.8333 3.58329 11.4229 3.58329 10.9167C3.58329 10.4104 3.9937 10 4.49996 10C5.00622 10 5.41663 10.4104 5.41663 10.9167C5.41663 11.4229 5.00622 11.8333 4.49996 11.8333Z" fill="#AAAAAA"/>
<path d="M15.5 15.5001C14.9937 15.5001 14.5833 15.0897 14.5833 14.5834C14.5833 14.0772 14.9937 13.6667 15.5 13.6667C16.0062 13.6667 16.4166 14.0772 16.4166 14.5834C16.4166 15.0897 16.0062 15.5001 15.5 15.5001Z" fill="#AAAAAA"/>
<path d="M11.8333 15.5001C11.3271 15.5001 10.9167 15.0897 10.9167 14.5834C10.9167 14.0772 11.3271 13.6667 11.8333 13.6667C12.3396 13.6667 12.75 14.0772 12.75 14.5834C12.75 15.0897 12.3396 15.5001 11.8333 15.5001Z" fill="#AAAAAA"/>
<path d="M8.16659 15.5001C7.66032 15.5001 7.24992 15.0897 7.24992 14.5834C7.24992 14.0772 7.66032 13.6667 8.16659 13.6667C8.67285 13.6667 9.08325 14.0772 9.08325 14.5834C9.08325 15.0897 8.67285 15.5001 8.16659 15.5001Z" fill="#AAAAAA"/>
<path d="M4.49996 15.5001C3.9937 15.5001 3.58329 15.0897 3.58329 14.5834C3.58329 14.0772 3.9937 13.6667 4.49996 13.6667C5.00622 13.6667 5.41663 14.0772 5.41663 14.5834C5.41663 15.0897 5.00622 15.5001 4.49996 15.5001Z" fill="#AAAAAA"/>
</svg>
