<svg width="21" height="21" viewBox="0 0 21 21" fill="none" xmlns="http://www.w3.org/2000/svg">
<g clip-path="url(#clip0_1091_2090)">
<path d="M13.5437 15.7592C13.5437 15.2155 13.103 14.7748 12.5593 14.7748C12.0156 14.7748 11.5749 15.2155 11.5749 15.7592C11.5749 17.2203 10.3861 18.4088 8.92533 18.4088H4.82344C3.3623 18.4088 2.17383 17.2203 2.17383 15.7592V5.2408C2.17383 3.77965 3.3623 2.59119 4.82344 2.59119H8.92533C10.3865 2.59119 11.5749 3.77998 11.5749 5.2408C11.5749 5.7845 12.0156 6.22517 12.5593 6.22517C13.103 6.22517 13.5437 5.7845 13.5437 5.2408C13.5437 2.69422 11.4719 0.622437 8.92533 0.622437H4.82344C2.27686 0.622437 0.205078 2.69422 0.205078 5.2408V15.7595C0.205078 18.3061 2.27686 20.3779 4.82344 20.3779H8.92533C11.4719 20.3779 13.5437 18.3057 13.5437 15.7592Z" fill="#373042"/>
<path d="M15.0872 6.65831C14.7453 7.0806 14.81 7.70076 15.2326 8.04267L17.0504 9.51562H6.87427C6.33056 9.51562 5.88989 9.95629 5.88989 10.5C5.88989 11.0437 6.33056 11.4844 6.87427 11.4844H17.0507L15.2326 12.957C14.9924 13.1516 14.8677 13.4357 14.8677 13.7225C14.8677 13.9401 14.9396 14.1592 15.0872 14.3417C15.4295 14.764 16.0493 14.8289 16.4716 14.4867C16.4716 14.4867 20.4455 11.2678 20.4495 11.2649C20.9167 10.8865 20.9046 10.1164 20.4495 9.73514L16.4716 6.51328C16.049 6.17104 15.4291 6.23601 15.0872 6.65831Z" fill="#373042"/>
</g>
<defs>
<clipPath id="clip0_1091_2090">
<rect width="21" height="21" fill="white"/>
</clipPath>
</defs>
</svg>
