<svg width="18" height="24" viewBox="0 0 18 24" fill="none" xmlns="http://www.w3.org/2000/svg">
<path d="M9 10C9 9 8.85 9 8.5 9C8.33 9 8 9 8 10C8.06075 10.5481 8.26801 11.0697 8.6 11.51C8.78227 11.0209 8.91624 10.5152 9 10Z" fill="#525968"/>
<path d="M9.00003 13.65L8.50003 15.16L8.41003 15.42C9.04003 15.22 9.69003 15.05 10.31 14.92C10 14.66 9.77003 14.44 9.67003 14.35C9.57003 14.26 9.18003 13.88 9.00003 13.65Z" fill="#525968"/>
<path d="M4 18.84C4.14355 18.9488 4.31997 19.0053 4.5 19C4.78 19 5.5 18.5 6.28 17.41L6.08 17.5C5.06 18 4 18.48 4 18.84Z" fill="#525968"/>
<path d="M17.85 5.15L12.85 0.15C12.7577 0.0557929 12.6319 0.00187852 12.5 0L2 0C1.46957 0 0.960859 0.210714 0.585786 0.585786C0.210714 0.960859 0 1.46957 0 2V22C0 22.5304 0.210714 23.0391 0.585786 23.4142C0.960859 23.7893 1.46957 24 2 24H16C16.5304 24 17.0391 23.7893 17.4142 23.4142C17.7893 23.0391 18 22.5304 18 22V5.5C17.9981 5.36812 17.9442 5.24232 17.85 5.15ZM13.5 17C12.6784 16.7506 11.9232 16.32 11.29 15.74C10.1212 15.947 8.97329 16.2583 7.86 16.67C6.83 18.76 5.43 20 4.5 20C3.78 20 3 19.56 3 18.84C3 17.84 4.05 17.35 5.65 16.6L6.78 16.06L7.12 15.9C7.26 15.58 7.4 15.23 7.53 14.85L8.22 12.76C7.52659 11.9955 7.09869 11.0274 7 10C7 8.31 7.82 8 8.5 8C9.4 8 10 8.34 10 10C9.8803 10.8696 9.65878 11.7221 9.34 12.54C9.63 12.89 9.97 13.26 10.34 13.64C10.7217 13.9947 11.1223 14.3285 11.54 14.64C12.0233 14.5632 12.5109 14.5164 13 14.5C13.65 14.5 15 14.5 15 15.68C15 16.28 14.74 17 13.5 17ZM14 5C13.7348 5 13.4804 4.89464 13.2929 4.70711C13.1054 4.51957 13 4.26522 13 4V1.71L16.29 5H14Z" fill="#525968"/>
<path d="M13 15.5H12.7C12.9577 15.6962 13.2401 15.8576 13.54 15.98C14 15.98 14 15.88 14 15.66C14 15.44 13.74 15.5 13 15.5Z" fill="#525968"/>
</svg>
