<svg width="21" height="21" viewBox="0 0 21 21" fill="none" xmlns="http://www.w3.org/2000/svg">
<path d="M2.856 20.58H13.272C11.424 19.572 10.164 17.64 10.164 15.372C10.164 12.096 12.852 9.40804 16.128 9.40804H16.212V2.60404C16.212 1.42804 15.204 0.420044 14.028 0.420044H2.856C1.68 0.420044 0.671997 1.42804 0.671997 2.60404V18.396C0.671997 19.572 1.596 20.58 2.856 20.58ZM4.788 3.78004H12.012C12.516 3.78004 12.852 4.20004 12.852 4.62004C12.852 5.12404 12.516 5.46004 12.012 5.46004H4.788C4.284 5.46004 3.948 5.12404 3.948 4.62004C3.948 4.20004 4.368 3.78004 4.788 3.78004ZM4.788 7.72804H9.492C9.996 7.72804 10.332 8.14804 10.332 8.56804C10.332 9.07204 9.996 9.40804 9.492 9.40804H4.788C4.284 9.40804 3.948 9.07204 3.948 8.56804C3.948 8.06404 4.368 7.72804 4.788 7.72804Z" fill="#008DF2"/>
<path d="M16.128 11.172C13.776 11.172 11.844 13.104 11.844 15.456C11.844 17.808 13.776 19.74 16.128 19.74C18.48 19.74 20.412 17.808 20.412 15.456C20.412 13.104 18.48 11.172 16.128 11.172ZM18.228 15.036L16.128 17.052C15.96 17.22 15.792 17.304 15.54 17.304C15.288 17.304 15.12 17.22 14.952 17.052L13.944 15.96C13.608 15.624 13.608 15.12 14.028 14.784C14.364 14.448 14.868 14.448 15.204 14.784L15.624 15.288L17.136 13.86C17.472 13.524 17.976 13.524 18.312 13.86C18.564 14.112 18.564 14.7 18.228 15.036Z" fill="#008DF2"/>
</svg>
