<svg width="20" height="20" viewBox="0 0 20 20" fill="none" xmlns="http://www.w3.org/2000/svg">
<path d="M10 0.429688C4.71445 0.429688 0.429688 4.71445 0.429688 10C0.429688 15.2855 4.71445 19.5703 10 19.5703C15.2855 19.5703 19.5703 15.2855 19.5703 10C19.5703 4.71445 15.2855 0.429688 10 0.429688ZM8.82136 4.63863C8.82136 4.32717 8.94509 4.02846 9.16533 3.80821C9.38557 3.58797 9.68428 3.46424 9.99575 3.46424C10.3072 3.46424 10.6059 3.58797 10.8262 3.80821C11.0464 4.02845 11.1701 4.32717 11.1701 4.63863V11.4382C11.1701 11.7497 11.0464 12.0484 10.8262 12.2686C10.6059 12.4889 10.3072 12.6126 9.99575 12.6126C9.68428 12.6126 9.38557 12.4889 9.16533 12.2686C8.94509 12.0484 8.82136 11.7497 8.82136 11.4382V4.63863ZM11.0297 16.106C10.7922 16.3403 10.4809 16.485 10.1487 16.5157C9.81651 16.5463 9.48396 16.461 9.2076 16.2741C8.93124 16.0873 8.72814 15.8104 8.63284 15.4907C8.53754 15.171 8.55593 14.8282 8.68488 14.5205C8.81382 14.2128 9.04536 13.9593 9.34012 13.8031C9.63488 13.6468 9.97466 13.5975 10.3017 13.6635C10.6287 13.7295 10.9227 13.9068 11.1338 14.1651C11.3449 14.4234 11.46 14.7469 11.4595 15.0805C11.4611 15.2717 11.4238 15.4611 11.3499 15.6374C11.2761 15.8137 11.1671 15.9731 11.0297 16.106Z" fill="#008DF2"/>
</svg>
