<svg width="18" height="20" viewBox="0 0 18 20" fill="none" xmlns="http://www.w3.org/2000/svg">
<path d="M9 9.75C11.6234 9.75 13.75 7.62335 13.75 5C13.75 2.37665 11.6234 0.25 9 0.25C6.37665 0.25 4.25 2.37665 4.25 5C4.25 7.62335 6.37665 9.75 9 9.75Z" fill="white"/>
<path d="M17.47 15.32L17.34 15C16.9031 13.9024 16.152 12.9582 15.1807 12.2857C14.2094 11.6133 13.0612 11.2425 11.88 11.22H6.13002C4.94888 11.2425 3.80069 11.6133 2.82939 12.2857C1.85809 12.9582 1.1069 13.9024 0.670019 15L0.530019 15.31C0.311941 15.8105 0.220663 16.3571 0.26427 16.9013C0.307877 17.4455 0.485024 17.9706 0.780019 18.43C1.02023 18.8223 1.35668 19.1467 1.75745 19.3724C2.15823 19.5982 2.61004 19.7178 3.07002 19.72H14.92C15.3813 19.7176 15.8345 19.598 16.2368 19.3723C16.6392 19.1467 16.9775 18.8224 17.22 18.43C17.5125 17.9714 17.6882 17.4482 17.7318 16.9061C17.7754 16.3639 17.6855 15.8194 17.47 15.32Z" fill="white"/>
</svg>
